<?xml version="1.0" encoding="UTF-8" standalone="no"?>
<!-- Created with Inkscape (http://www.inkscape.org/) -->

<svg
   width="100mm"
   height="100mm"
   viewBox="0 0 100 100"
   version="1.1"
   id="svg5"
   xml:space="preserve"
   inkscape:version="1.2.2 (732a01da63, 2022-12-09)"
   sodipodi:docname="general_white.svg"
   xmlns:inkscape="http://www.inkscape.org/namespaces/inkscape"
   xmlns:sodipodi="http://sodipodi.sourceforge.net/DTD/sodipodi-0.dtd"
   xmlns="http://www.w3.org/2000/svg"
   xmlns:svg="http://www.w3.org/2000/svg"><sodipodi:namedview
     id="namedview7"
     pagecolor="#ffffff"
     bordercolor="#000000"
     borderopacity="0.25"
     inkscape:showpageshadow="2"
     inkscape:pageopacity="0.0"
     inkscape:pagecheckerboard="0"
     inkscape:deskcolor="#d1d1d1"
     inkscape:document-units="mm"
     showgrid="false"
     inkscape:zoom="1.3070417"
     inkscape:cx="128.53454"
     inkscape:cy="189.74146"
     inkscape:window-width="1366"
     inkscape:window-height="697"
     inkscape:window-x="-8"
     inkscape:window-y="-8"
     inkscape:window-maximized="1"
     inkscape:current-layer="layer1" /><defs
     id="defs2" /><g
     inkscape:label="Layer 1"
     inkscape:groupmode="layer"
     id="layer1"><path
       style="fill:#f4eed7;stroke:#1a1a1a;stroke-width:0.561;stroke-dasharray:none;stroke-opacity:1;fill-opacity:1"
       d="m 30.97556,86.467135 c -0.873782,-0.380318 -1.076966,-1.144357 -1.076966,-4.049752 0,-2.870321 0.229896,-3.652718 1.234354,-4.20082 0.627115,-0.342199 1.704094,-0.366466 18.529096,-0.417504 17.347694,-0.05262 17.888769,-0.04292 18.746323,0.336424 1.46358,0.64741 1.692152,1.238485 1.693034,4.378105 7.94e-4,3.019721 -0.194023,3.659999 -1.223128,4.018744 -1.01964,0.35545 -37.078779,0.293423 -37.902713,-0.0652 z m 0.73023,-11.10096 c -0.360994,-0.674524 -0.230811,-1.015056 0.716801,-1.875001 3.315348,-3.008633 5.291038,-8.042827 6.373365,-16.239749 0.174306,-1.320117 0.364221,-2.639413 0.422028,-2.93177 0.09155,-0.463018 0.02691,-0.548734 -0.501368,-0.66476 -2.335432,-0.512948 -2.856437,-4.106957 -0.761381,-5.252182 0.592808,-0.324047 1.520628,-0.352101 11.645101,-0.352101 10.252981,0 11.050921,0.02485 11.735584,0.365486 0.878671,0.43716 1.365869,1.352779 1.364827,2.564999 -9.74e-4,1.153945 -0.544353,1.994236 -1.596275,2.468586 l -0.855962,0.385984 0.119211,1.507861 c 0.285777,3.614771 1.620241,9.602973 2.738764,12.289786 0.840219,2.018299 2.241791,4.098693 3.781684,5.613266 1.259486,1.238772 1.432129,1.659528 0.899489,2.192167 -0.281025,0.281025 -2.19739,0.314314 -18.094561,0.314314 -17.374105,0 -17.784981,-0.0089 -17.987307,-0.386886 z m 8.09368,-29.261998 c -1.500995,-0.31741 -1.28337,0.106293 -3.014763,-5.869531 -3.0483,-10.521062 -3.212802,-11.373754 -2.600552,-13.479816 0.462933,-1.592437 2.107183,-3.282088 3.815156,-3.920501 1.599608,-0.597909 4.501802,-0.774707 5.747805,-0.350151 l 0.890379,0.303383 0.337218,-1.427355 c 0.18547,-0.785044 0.678536,-2.196905 1.095705,-3.137466 0.747961,-1.686369 2.468712,-4.551197 2.905579,-4.837406 0.564114,-0.369573 1.118843,-0.133198 1.712562,0.729745 0.976766,1.419681 2.578922,4.85876 3.250539,6.977389 0.507563,1.601117 0.680173,1.935194 0.941611,1.822451 2.684849,-1.157842 6.225164,-0.684597 8.256784,1.103704 0.48246,0.42468 1.144223,1.299256 1.470584,1.943504 0.74829,1.477152 0.747415,2.625573 -0.0046,5.971784 -0.683458,3.041335 -3.830121,13.495784 -4.161941,13.827605 -0.36908,0.369082 -2.652896,0.462111 -10.941252,0.445686 -5.115452,-0.01015 -9.700858,-0.103025 -9.700858,-0.103025 z"
       id="path706"
       sodipodi:nodetypes="ssssscsscssssssscscsssssccsssscssssscsscsscc" /></g></svg>
