<?xml version="1.0" encoding="UTF-8" standalone="no"?>
<!-- Created with Inkscape (http://www.inkscape.org/) -->

<svg
   width="100mm"
   height="100mm"
   viewBox="0 0 100 100"
   version="1.1"
   id="svg5"
   xml:space="preserve"
   inkscape:version="1.2.2 (732a01da63, 2022-12-09)"
   sodipodi:docname="general_white.svg"
   xmlns:inkscape="http://www.inkscape.org/namespaces/inkscape"
   xmlns:sodipodi="http://sodipodi.sourceforge.net/DTD/sodipodi-0.dtd"
   xmlns="http://www.w3.org/2000/svg"
   xmlns:svg="http://www.w3.org/2000/svg"><sodipodi:namedview
     id="namedview7"
     pagecolor="#ffffff"
     bordercolor="#000000"
     borderopacity="0.25"
     inkscape:showpageshadow="2"
     inkscape:pageopacity="0.0"
     inkscape:pagecheckerboard="0"
     inkscape:deskcolor="#d1d1d1"
     inkscape:document-units="mm"
     showgrid="false"
     inkscape:zoom="1.3070417"
     inkscape:cx="174.05719"
     inkscape:cy="188.97638"
     inkscape:window-width="1366"
     inkscape:window-height="697"
     inkscape:window-x="-8"
     inkscape:window-y="-8"
     inkscape:window-maximized="1"
     inkscape:current-layer="layer1" /><defs
     id="defs2" /><g
     inkscape:label="Layer 1"
     inkscape:groupmode="layer"
     id="layer1"><g
       id="g3068"
       style="fill:#f4eed7;fill-opacity:1"
       transform="matrix(0.84213954,0,0,0.84213954,7.8960604,7.9103872)"><rect
         style="fill:#f4eed7;fill-opacity:1;stroke:#1a1a1a;stroke-width:1.5;stroke-dasharray:none;stroke-opacity:1"
         id="rect1533"
         width="56.604397"
         height="11.470496"
         x="21.694195"
         y="82.288322"
         ry="2.4291499" /><g
         id="g1479"
         transform="translate(-2.3279347,-2.8041033)"
         style="fill:#f4eed7;fill-opacity:1"><path
           style="fill:#f4eed7;fill-opacity:1;stroke:#1a1a1a;stroke-width:1.25111;stroke-dasharray:none;stroke-opacity:1"
           d="m 26.481175,81.481191 c -0.354311,-0.662036 -0.359179,-4.599344 -0.008,-6.480957 0.653187,-3.499897 3.02566,-6.62296 6.179338,-8.134318 l 1.770678,-0.848576 -1.432596,-1.367007 c -1.963792,-1.873884 -3.037375,-4.202543 -3.229451,-7.004845 -0.379408,-5.53545 2.56827,-10.039509 7.834192,-11.970669 0.737104,-0.270316 1.361287,-0.501233 1.387072,-0.513147 0.02579,-0.01193 -0.1231,-0.744371 -0.330858,-1.627682 -1.351871,-5.747605 1.210196,-11.958652 6.34829,-15.389742 2.273539,-1.518209 4.536165,-2.164532 7.57754,-2.164532 4.395249,0 7.160323,1.103017 10.078895,4.020569 3.469869,3.46866 4.969016,8.097053 4.037042,12.463765 -0.125853,0.589682 -0.308031,1.434002 -0.404836,1.876264 -0.171518,0.783578 -0.137075,0.816337 1.348559,1.282685 3.110638,0.976452 5.565861,3.163224 7.007266,6.241106 0.674585,1.440465 0.743664,1.865949 0.736754,4.537917 -0.0063,2.435071 -0.114597,3.216604 -0.622009,4.488741 -0.637134,1.597361 -2.683469,4.093047 -3.882063,4.734515 -0.679407,0.363607 -0.675245,0.368142 1.133189,1.234811 3.411311,1.634827 5.821339,4.720305 6.486612,8.30459 0.367652,1.980792 0.200827,5.837035 -0.277446,6.413319 -0.313802,0.37811 -2.988713,0.421648 -25.905309,0.421648 -24.991523,0 -25.561495,-0.01144 -25.832843,-0.518455 z"
           id="path248"
           sodipodi:nodetypes="ssscsssccssssssscssssssss" /><path
           style="fill:#f4eed7;fill-opacity:1;stroke:#1a1a1a;stroke-width:1.5;stroke-dasharray:none;stroke-opacity:1"
           id="path1475"
           sodipodi:type="arc"
           sodipodi:cx="52.327934"
           sodipodi:cy="17.004049"
           sodipodi:rx="8"
           sodipodi:ry="8"
           sodipodi:start="0"
           sodipodi:end="6.274511"
           sodipodi:open="true"
           sodipodi:arc-type="arc"
           d="M 60.327934,17.004049 A 8,8 0 0 1 52.345283,25.00403 8,8 0 0 1 44.32801,17.038746 8,8 0 0 1 52.275889,9.0042186 8,8 0 0 1 60.327633,16.934656" /></g></g></g></svg>
