<?xml version="1.0" encoding="UTF-8" standalone="no"?>
<!-- Created with Inkscape (http://www.inkscape.org/) -->

<svg
   width="324"
   height="324"
   viewBox="0 0 85.725 85.724999"
   version="1.1"
   id="svg5"
   xml:space="preserve"
   inkscape:version="1.2.2 (732a01da63, 2022-12-09)"
   sodipodi:docname="pawn_black.svg"
   xmlns:inkscape="http://www.inkscape.org/namespaces/inkscape"
   xmlns:sodipodi="http://sodipodi.sourceforge.net/DTD/sodipodi-0.dtd"
   xmlns="http://www.w3.org/2000/svg"
   xmlns:svg="http://www.w3.org/2000/svg"><sodipodi:namedview
     id="namedview7"
     pagecolor="#ffffff"
     bordercolor="#000000"
     borderopacity="0.25"
     inkscape:showpageshadow="2"
     inkscape:pageopacity="0.0"
     inkscape:pagecheckerboard="0"
     inkscape:deskcolor="#d1d1d1"
     inkscape:document-units="mm"
     showgrid="false"
     inkscape:zoom="1.5246914"
     inkscape:cx="149.8664"
     inkscape:cy="162"
     inkscape:window-width="1366"
     inkscape:window-height="697"
     inkscape:window-x="-8"
     inkscape:window-y="-8"
     inkscape:window-maximized="1"
     inkscape:current-layer="layer1" /><defs
     id="defs2" /><g
     inkscape:label="Layer 1"
     inkscape:groupmode="layer"
     id="layer1"><path
       style="fill:#1a1a1a;fill-opacity:1;stroke:#1a1a1a;stroke-width:1.5;stroke-opacity:1;stroke-dasharray:none"
       d="m 22.845041,77.034361 c -1.034285,-0.404168 -1.189593,-0.960771 -1.189593,-4.263336 0,-3.429441 0.156722,-3.947453 1.417994,-4.686864 0.661045,-0.387533 1.524636,-0.408034 19.542304,-0.46394 18.463522,-0.05729 18.869546,-0.04965 19.76849,0.371737 1.502405,0.704268 1.685315,1.218003 1.685315,4.733532 0,1.677335 -0.102702,3.230973 -0.228645,3.458848 -0.602752,1.09058 -0.07553,1.064256 -21.022895,1.049612 -10.723398,-0.0075 -19.711235,-0.09731 -19.97297,-0.199589 z m 1.51958,-11.871509 c -0.146562,-0.141921 -0.266476,-0.511613 -0.266476,-0.821538 0,-0.43518 0.327967,-0.817992 1.44023,-1.681078 2.578192,-2.000604 6.014612,-6.308436 7.832479,-9.818647 1.755347,-3.389487 3.096245,-7.882857 3.709037,-12.429041 0.543564,-4.03258 0.658334,-3.723338 -1.43337,-3.862166 -1.13714,-0.07547 -2.035277,-0.262228 -2.498213,-0.519465 -0.832957,-0.462847 -1.722072,-1.997389 -1.722072,-2.972159 0,-0.363815 0.224839,-1.090615 0.499642,-1.615112 0.655362,-1.25084 1.898882,-1.865983 4.454179,-2.203389 1.861848,-0.245842 1.930143,-0.274599 1.930143,-0.812711 0,-0.429298 -0.210105,-0.672197 -0.91175,-1.054054 -3.030097,-1.649077 -4.903076,-4.828194 -4.948425,-8.39925 -0.03073,-2.420089 0.36099,-3.778734 1.633823,-5.666771 2.530543,-3.75364 7.286469,-5.644419 11.258792,-4.476074 5.24426,1.542449 8.76716,6.699651 7.905185,11.572461 -0.305118,1.724868 -1.519673,4.25108 -2.601115,5.410198 -0.446959,0.479065 -1.307024,1.178216 -1.911252,1.553669 -0.784177,0.487269 -1.098596,0.821583 -1.098596,1.168108 0,0.438409 0.13703,0.49906 1.41367,0.625715 3.144175,0.311927 4.734742,1.185181 5.261874,2.888875 0.363705,1.175487 -0.0054,2.44108 -0.990058,3.394533 -0.832244,0.805888 -1.970695,1.158945 -3.742431,1.16061 l -1.276865,0.0012 0.0011,0.91388 c 0.0024,1.761179 0.905515,6.855041 1.677889,9.46299 0.948317,3.202028 2.879658,7.13433 4.733352,9.637327 1.206807,1.629522 4.071349,4.528462 6.522747,6.601075 0.893889,0.755766 1.040942,1.32143 0.483781,1.860944 -0.311516,0.301743 -2.315038,0.337907 -18.719849,0.337907 -13.992459,0 -18.434497,-0.0615 -18.63746,-0.258037 z"
       id="path260"
       sodipodi:nodetypes="ssssssssscssssssssssssssssssssccccssscscc" /></g></svg>
