<?xml version="1.0" encoding="UTF-8" standalone="no"?>
<!-- Created with Inkscape (http://www.inkscape.org/) -->

<svg
   width="324"
   height="324"
   viewBox="0 0 85.725 85.724999"
   version="1.1"
   id="svg5"
   xml:space="preserve"
   inkscape:version="1.2.2 (732a01da63, 2022-12-09)"
   sodipodi:docname="pawn_white.svg"
   xmlns:inkscape="http://www.inkscape.org/namespaces/inkscape"
   xmlns:sodipodi="http://sodipodi.sourceforge.net/DTD/sodipodi-0.dtd"
   xmlns="http://www.w3.org/2000/svg"
   xmlns:svg="http://www.w3.org/2000/svg"><sodipodi:namedview
     id="namedview7"
     pagecolor="#ffffff"
     bordercolor="#000000"
     borderopacity="0.25"
     inkscape:showpageshadow="2"
     inkscape:pageopacity="0.0"
     inkscape:pagecheckerboard="0"
     inkscape:deskcolor="#d1d1d1"
     inkscape:document-units="mm"
     showgrid="false"
     inkscape:zoom="1.5246914"
     inkscape:cx="151.83401"
     inkscape:cy="162"
     inkscape:window-width="1366"
     inkscape:window-height="697"
     inkscape:window-x="-8"
     inkscape:window-y="-8"
     inkscape:window-maximized="1"
     inkscape:current-layer="layer1" /><defs
     id="defs2" /><g
     inkscape:label="Layer 1"
     inkscape:groupmode="layer"
     id="layer1"><path
       style="fill:#f4eed7;fill-opacity:1;stroke:#000000;stroke-width:1.5;stroke-opacity:1;stroke-dasharray:none"
       d="m 22.844864,77.034353 c -1.034295,-0.404168 -1.189604,-0.960771 -1.189604,-4.263335 0,-3.42944 0.156724,-3.947453 1.418007,-4.686863 0.66105,-0.387533 1.524649,-0.408034 19.542478,-0.46394 18.463686,-0.05729 18.869714,-0.04965 19.768665,0.371737 1.502419,0.704268 1.68533,1.218003 1.68533,4.733531 0,1.677335 -0.102702,3.230973 -0.228647,3.458848 -0.602756,1.090578 -0.07553,1.064255 -21.023081,1.049611 -10.723494,-0.0075 -19.711411,-0.09731 -19.973148,-0.199589 z m 1.519594,-11.871506 c -0.146564,-0.141921 -0.266479,-0.511612 -0.266479,-0.821538 0,-0.435179 0.32797,-0.817992 1.440243,-1.681078 2.578215,-2.000603 6.014665,-6.308434 7.832549,-9.818644 1.755362,-3.389486 3.096271,-7.882855 3.70907,-12.429039 0.543568,-4.032579 0.658339,-3.723337 -1.433384,-3.862165 -1.137149,-0.07547 -2.035294,-0.262227 -2.498234,-0.519464 -0.832965,-0.462847 -1.722088,-1.997388 -1.722088,-2.972158 0,-0.363816 0.224841,-1.090615 0.499647,-1.615112 C 32.58115,30.19281 33.82468,29.577667 36.38,29.24026 c 1.861864,-0.245842 1.930161,-0.274599 1.930161,-0.81271 0,-0.429298 -0.210108,-0.672197 -0.911759,-1.054054 -3.030124,-1.649076 -4.903119,-4.828193 -4.948468,-8.399248 -0.03073,-2.420089 0.360992,-3.778733 1.633837,-5.66677 2.530565,-3.7536395 7.286534,-5.6444172 11.258892,-4.4760724 5.244307,1.5424484 8.767238,6.6996484 7.905256,11.5724584 -0.305122,1.724867 -1.519687,4.251078 -2.601139,5.410196 -0.446963,0.479066 -1.307036,1.178217 -1.911268,1.553669 -0.784185,0.487269 -1.098607,0.821582 -1.098607,1.168107 0,0.438409 0.137032,0.499061 1.413683,0.625715 3.144204,0.311928 4.734784,1.185181 5.261921,2.888875 0.363707,1.175486 -0.0054,2.44108 -0.990067,3.394532 -0.832251,0.805887 -1.970713,1.158945 -3.742465,1.160609 l -1.276875,0.0012 0.0011,0.91388 c 0.0024,1.761179 0.905523,6.855039 1.677905,9.462988 0.948325,3.202026 2.879682,7.134327 4.733393,9.637324 1.206819,1.629522 4.071385,4.52846 6.522805,6.601073 0.893898,0.755766 1.040951,1.32143 0.483785,1.860944 -0.311518,0.301742 -2.315059,0.337907 -18.720015,0.337907 -13.992583,0 -18.43466,-0.0615 -18.637627,-0.258038 z"
       id="path260"
       sodipodi:nodetypes="ssssssssscssssssssssssssssssssccccssscscc" /></g></svg>
