<?xml version="1.0" encoding="UTF-8" standalone="no"?>
<!-- Created with Inkscape (http://www.inkscape.org/) -->

<svg
   width="324"
   height="324"
   viewBox="0 0 85.725 85.724999"
   version="1.1"
   id="svg5"
   xml:space="preserve"
   inkscape:version="1.2.2 (732a01da63, 2022-12-09)"
   sodipodi:docname="pawn_black.svg"
   xmlns:inkscape="http://www.inkscape.org/namespaces/inkscape"
   xmlns:sodipodi="http://sodipodi.sourceforge.net/DTD/sodipodi-0.dtd"
   xmlns:xlink="http://www.w3.org/1999/xlink"
   xmlns="http://www.w3.org/2000/svg"
   xmlns:svg="http://www.w3.org/2000/svg"><sodipodi:namedview
     id="namedview7"
     pagecolor="#ffffff"
     bordercolor="#000000"
     borderopacity="0.25"
     inkscape:showpageshadow="2"
     inkscape:pageopacity="0.0"
     inkscape:pagecheckerboard="0"
     inkscape:deskcolor="#d1d1d1"
     inkscape:document-units="mm"
     showgrid="false"
     inkscape:zoom="1.5246914"
     inkscape:cx="84.279352"
     inkscape:cy="175.11741"
     inkscape:window-width="1366"
     inkscape:window-height="697"
     inkscape:window-x="-8"
     inkscape:window-y="-8"
     inkscape:window-maximized="1"
     inkscape:current-layer="layer1" /><defs
     id="defs2"><linearGradient
       inkscape:collect="always"
       id="linearGradient1119"><stop
         style="stop-color:#1c1c16;stop-opacity:1;"
         offset="0"
         id="stop1115" /><stop
         style="stop-color:#4c4943;stop-opacity:1;"
         offset="1"
         id="stop1117" /></linearGradient><linearGradient
       inkscape:collect="always"
       xlink:href="#linearGradient1119"
       id="linearGradient1125"
       x1="23.88888"
       y1="29.153101"
       x2="64.265572"
       y2="54.662361"
       gradientUnits="userSpaceOnUse" /></defs><g
     inkscape:label="Layer 1"
     inkscape:groupmode="layer"
     id="layer1"><path
       style="fill:url(#linearGradient1125);stroke:#000000;stroke-width:0.235602;stroke-opacity:1;fill-opacity:1"
       d="m 21.62462,80.303101 c -1.097343,-0.442833 -1.26212,-1.052685 -1.26212,-4.671196 0,-3.757525 0.166278,-4.325094 1.504447,-5.135242 0.701347,-0.424607 1.617589,-0.447069 20.733756,-0.508323 19.589203,-0.06277 20.019982,-0.0544 20.973732,0.4073 1.594004,0.771643 1.788065,1.334525 1.788065,5.186374 0,1.8378 -0.108963,3.54007 -0.242585,3.789745 -0.6395,1.194912 -0.08013,1.16607 -22.304615,1.150025 -11.377181,-0.0082 -20.912987,-0.106622 -21.19068,-0.218683 z m 1.612226,-13.007219 c -0.155498,-0.155498 -0.282723,-0.560557 -0.282723,-0.900132 0,-0.476812 0.347963,-0.896247 1.528038,-1.841902 2.735379,-2.191995 6.38131,-6.911944 8.310009,-10.757966 1.862366,-3.713749 3.285016,-8.636985 3.935169,-13.618089 0.576704,-4.418364 0.698471,-4.079538 -1.52076,-4.231647 -1.206469,-0.08269 -2.159363,-0.287314 -2.650523,-0.56916 -0.883741,-0.507127 -1.827064,-2.188473 -1.827064,-3.256497 0,-0.39862 0.238547,-1.19495 0.530105,-1.769624 0.695318,-1.370504 2.014652,-2.044496 4.72574,-2.414181 1.975361,-0.269361 2.04782,-0.300869 2.04782,-0.89046 0,-0.470368 -0.222915,-0.736504 -0.967337,-1.154892 -3.214836,-1.806839 -5.202007,-5.290093 -5.25012,-9.20278 -0.0326,-2.651612 0.382998,-4.140234 1.733433,-6.208894 2.684825,-4.1127391 7.73071,-6.1844021 11.945217,-4.9042851 5.563991,1.69001 9.301675,7.3405851 8.387147,12.6795621 -0.323721,1.88988 -1.612324,4.657767 -2.759699,5.927774 -0.47421,0.524896 -1.386711,1.290933 -2.027777,1.702304 -0.831987,0.533884 -1.165576,0.900181 -1.165576,1.279857 0,0.48035 0.145385,0.546804 1.499859,0.685575 3.335869,0.341769 5.023409,1.298564 5.582679,3.165245 0.385879,1.287942 -0.0057,2.674611 -1.05042,3.719278 -0.882984,0.882984 -2.090844,1.269817 -3.970599,1.271641 l -1.354712,0.0013 0.0012,1.001308 c 0.0025,1.929666 0.960722,7.510841 1.780186,10.368285 1.006134,3.508356 3.055224,7.816849 5.021934,10.5593 1.280384,1.785413 4.319571,4.961685 6.920425,7.232579 0.948388,0.828068 1.104406,1.447847 0.513276,2.038975 -0.330508,0.330609 -2.456181,0.370233 -19.861158,0.370233 -14.845549,0 -19.558408,-0.06738 -19.773747,-0.282723 z"
       id="path260"
       sodipodi:nodetypes="ssssssssscssssssssssssssssssssccccssscscc" /></g></svg>
